<svg width="18" height="17" viewBox="0 0 18 17" fill="none" xmlns="http://www.w3.org/2000/svg">
    <path d="M16.1339 1.36442H15.0039V0.468872C15.0039 0.210992 14.7929 0 14.535 0C14.2772 0 14.0662 0.210992 14.0662 0.468872V1.36442H9.47122V0.468872C9.47122 0.210992 9.26023 0 9.00235 0C8.74447 0 8.53348 0.210992 8.53348 0.468872V1.36442H3.89164V0.468872C3.89164 0.210992 3.68065 0 3.42277 0C3.16489 0 2.9539 0.210992 2.9539 0.468872V1.36442H1.8708C0.839282 1.36442 0 2.23183 0 3.26335V14.1646C0 15.2008 0.834593 16.0401 1.8708 16.0401H16.1292C17.1654 16.0401 18 15.2008 18 14.1693V3.26335C18.0047 2.23183 17.1654 1.36442 16.1339 1.36442ZM17.067 14.1646C17.067 14.6804 16.6543 15.0977 16.1386 15.1024H16.1339H1.8708C1.35504 15.1024 0.937745 14.6851 0.937745 14.1693V14.1646V3.26335C0.937745 2.7429 1.35504 2.30216 1.8708 2.30216H2.9539V2.98203C2.9539 3.23991 3.16489 3.4509 3.42277 3.4509C3.68065 3.4509 3.89164 3.23991 3.89164 2.98203V2.30216H8.53348V2.98203C8.53348 3.23991 8.74447 3.4509 9.00235 3.4509C9.26023 3.4509 9.47122 3.23991 9.47122 2.98203V2.30216H14.0662V2.98203C14.0662 3.23991 14.2772 3.4509 14.535 3.4509C14.7929 3.4509 15.0039 3.23991 15.0039 2.98203V2.30216H16.1339C16.6543 2.30216 17.067 2.74759 17.067 3.26335V14.1646Z" fill="#3B4E68" fill-opacity="0.6"></path>
    <path d="M7.76889 5.34985H6.94836C6.69048 5.34985 6.47949 5.56085 6.47949 5.81873C6.47949 6.07661 6.69048 6.2876 6.94836 6.2876H7.76889C8.02677 6.2876 8.23776 6.07661 8.23776 5.81873C8.23776 5.56085 8.02677 5.34985 7.76889 5.34985Z" fill="#3B4E68" fill-opacity="0.6"></path>
    <path d="M11.0326 5.34985H10.212C9.95416 5.34985 9.74316 5.56085 9.74316 5.81873C9.74316 6.07661 9.95416 6.2876 10.212 6.2876H11.0326C11.2904 6.2876 11.5014 6.07661 11.5014 5.81873C11.5014 5.56085 11.2951 5.34985 11.0326 5.34985Z" fill="#3B4E68" fill-opacity="0.6"></path>
    <path d="M14.3241 5.34985H13.5035C13.2457 5.34985 13.0347 5.56085 13.0347 5.81873C13.0347 6.07661 13.2457 6.2876 13.5035 6.2876H14.3241C14.5819 6.2876 14.7929 6.07661 14.7929 5.81873C14.7929 5.56085 14.5819 5.34985 14.3241 5.34985Z" fill="#3B4E68" fill-opacity="0.6"></path>
    <path d="M7.76889 8.58496H6.94836C6.69048 8.58496 6.47949 8.79595 6.47949 9.05383C6.47949 9.31171 6.69048 9.52271 6.94836 9.52271H7.76889C8.02677 9.52271 8.23776 9.31171 8.23776 9.05383C8.23776 8.79595 8.02677 8.58496 7.76889 8.58496Z" fill="#3B4E68" fill-opacity="0.6"></path>
    <path d="M4.48256 8.58496H3.65735C3.39947 8.58496 3.18848 8.79595 3.18848 9.05383C3.18848 9.31171 3.39947 9.52271 3.65735 9.52271H4.47787C4.73575 9.52271 4.94675 9.31171 4.94675 9.05383C4.94675 8.79595 4.74044 8.58496 4.48256 8.58496Z" fill="#3B4E68" fill-opacity="0.6"></path>
    <path d="M11.0326 8.58496H10.212C9.95416 8.58496 9.74316 8.79595 9.74316 9.05383C9.74316 9.31171 9.95416 9.52271 10.212 9.52271H11.0326C11.2904 9.52271 11.5014 9.31171 11.5014 9.05383C11.5014 8.79595 11.2951 8.58496 11.0326 8.58496Z" fill="#3B4E68" fill-opacity="0.6"></path>
    <path d="M14.3241 8.58496H13.5035C13.2457 8.58496 13.0347 8.79595 13.0347 9.05383C13.0347 9.31171 13.2457 9.52271 13.5035 9.52271H14.3241C14.5819 9.52271 14.7929 9.31171 14.7929 9.05383C14.7929 8.79595 14.5819 8.58496 14.3241 8.58496Z" fill="#3B4E68" fill-opacity="0.6"></path>
    <path d="M7.76889 11.7734H6.94836C6.69048 11.7734 6.47949 11.9844 6.47949 12.2423C6.47949 12.5002 6.69048 12.7112 6.94836 12.7112H7.76889C8.02677 12.7112 8.23776 12.5002 8.23776 12.2423C8.23776 11.9844 8.02677 11.7734 7.76889 11.7734Z" fill="#3B4E68" fill-opacity="0.6"></path>
    <path d="M4.48256 11.7734H3.65735C3.39947 11.7734 3.18848 11.9844 3.18848 12.2423C3.18848 12.5002 3.39947 12.7112 3.65735 12.7112H4.47787C4.73575 12.7112 4.94675 12.5002 4.94675 12.2423C4.94675 11.9844 4.74044 11.7734 4.48256 11.7734Z" fill="#3B4E68" fill-opacity="0.6"></path>
    <path d="M11.0326 11.7734H10.212C9.95416 11.7734 9.74316 11.9844 9.74316 12.2423C9.74316 12.5002 9.95416 12.7112 10.212 12.7112H11.0326C11.2904 12.7112 11.5014 12.5002 11.5014 12.2423C11.5014 11.9844 11.2951 11.7734 11.0326 11.7734Z" fill="#3B4E68" fill-opacity="0.6"></path>
</svg>